<?xml version="1.0" encoding="UTF-8" standalone="no"?>
<svg width="800" height="480" xmlns="http://www.w3.org/2000/svg">
  <!-- 背景 -->
  <rect width="100%" height="100%" fill="#f8f9fa"/>
  
  <!-- 标题 -->
  <text x="400" y="40" font-family="Arial" font-size="24" font-weight="bold" text-anchor="middle" fill="#333">Git 工作流程图</text>
  
  <!-- 工作区 -->
  <rect x="50" y="100" width="150" height="200" rx="10" fill="#e3f2fd" stroke="#2196f3" stroke-width="2"/>
  <text x="125" y="130" font-family="Arial" font-size="16" font-weight="bold" text-anchor="middle" fill="#1565c0">工作区</text>
  <text x="125" y="150" font-family="Arial" font-size="12" text-anchor="middle" fill="#555">Working Directory</text>
  <rect x="75" y="170" width="100" height="30" rx="5" fill="#bbdefb" stroke="#1e88e5" stroke-width="1"/>
  <text x="125" y="190" font-family="Arial" font-size="12" text-anchor="middle" fill="#333">index.html</text>
  <rect x="75" y="210" width="100" height="30" rx="5" fill="#bbdefb" stroke="#1e88e5" stroke-width="1"/>
  <text x="125" y="230" font-family="Arial" font-size="12" text-anchor="middle" fill="#333">style.css</text>
  <rect x="75" y="250" width="100" height="30" rx="5" fill="#bbdefb" stroke="#1e88e5" stroke-width="1"/>
  <text x="125" y="270" font-family="Arial" font-size="12" text-anchor="middle" fill="#333">script.js</text>
  
  <!-- 暂存区 -->
  <rect x="300" y="100" width="150" height="200" rx="10" fill="#f3e5f5" stroke="#9c27b0" stroke-width="2"/>
  <text x="375" y="130" font-family="Arial" font-size="16" font-weight="bold" text-anchor="middle" fill="#6a1b9a">暂存区</text>
  <text x="375" y="150" font-family="Arial" font-size="12" text-anchor="middle" fill="#555">Staging Area (Index)</text>
  <rect x="325" y="170" width="100" height="30" rx="5" fill="#e1bee7" stroke="#8e24aa" stroke-width="1"/>
  <text x="375" y="190" font-family="Arial" font-size="12" text-anchor="middle" fill="#333">index.html</text>
  <rect x="325" y="210" width="100" height="30" rx="5" fill="#e1bee7" stroke="#8e24aa" stroke-width="1"/>
  <text x="375" y="230" font-family="Arial" font-size="12" text-anchor="middle" fill="#333">style.css</text>
  
  <!-- 本地仓库 -->
  <rect x="550" y="100" width="150" height="200" rx="10" fill="#e8f5e9" stroke="#4caf50" stroke-width="2"/>
  <text x="625" y="130" font-family="Arial" font-size="16" font-weight="bold" text-anchor="middle" fill="#2e7d32">本地仓库</text>
  <text x="625" y="150" font-family="Arial" font-size="12" text-anchor="middle" fill="#555">Local Repository</text>
  <rect x="575" y="170" width="100" height="30" rx="5" fill="#c8e6c9" stroke="#43a047" stroke-width="1"/>
  <text x="625" y="190" font-family="Arial" font-size="12" text-anchor="middle" fill="#333">Commit 1</text>
  <rect x="575" y="210" width="100" height="30" rx="5" fill="#c8e6c9" stroke="#43a047" stroke-width="1"/>
  <text x="625" y="230" font-family="Arial" font-size="12" text-anchor="middle" fill="#333">Commit 2</text>
  <rect x="575" y="250" width="100" height="30" rx="5" fill="#c8e6c9" stroke="#43a047" stroke-width="1"/>
  <text x="625" y="270" font-family="Arial" font-size="12" text-anchor="middle" fill="#333">Commit 3</text>
  
  <!-- 远程仓库 -->
  <rect x="300" y="350" width="150" height="80" rx="10" fill="#ffebee" stroke="#f44336" stroke-width="2"/>
  <text x="375" y="380" font-family="Arial" font-size="16" font-weight="bold" text-anchor="middle" fill="#c62828">远程仓库</text>
  <text x="375" y="400" font-family="Arial" font-size="12" text-anchor="middle" fill="#555">Remote Repository</text>
  
  <!-- 箭头 -->
  <!-- 工作区 -> 暂存区 -->
  <path d="M210 180 L290 180" stroke="#333" stroke-width="2" fill="none" marker-end="url(#arrowhead)"/>
  <text x="250" y="170" font-family="Arial" font-size="12" text-anchor="middle" fill="#333">git add</text>
  
  <!-- 暂存区 -> 本地仓库 -->
  <path d="M460 180 L540 180" stroke="#333" stroke-width="2" fill="none" marker-end="url(#arrowhead)"/>
  <text x="500" y="170" font-family="Arial" font-size="12" text-anchor="middle" fill="#333">git commit</text>
  
  <!-- 本地仓库 -> 远程仓库 -->
  <path d="M625 310 L625 340 L380 340 L380 345" stroke="#333" stroke-width="2" fill="none" marker-end="url(#arrowhead)"/>
  <text x="500" y="330" font-family="Arial" font-size="12" text-anchor="middle" fill="#333">git push</text>
  
  <!-- 远程仓库 -> 本地仓库 -->
  <path d="M370 350 L370 340 L210 340 L210 310 L535 310 L535 245" stroke="#333" stroke-width="2" fill="none" marker-end="url(#arrowhead)"/>
  <text x="290" y="330" font-family="Arial" font-size="12" text-anchor="middle" fill="#333">git pull</text>
  
  <!-- 本地仓库 -> 工作区 -->
  <path d="M575 245 L330 245 L330 320 L125 320 L125 310" stroke="#333" stroke-width="2" fill="none" marker-end="url(#arrowhead)"/>
  <text x="330" y="265" font-family="Arial" font-size="12" text-anchor="middle" fill="#333">git checkout</text>
  
  <!-- 暂存区 -> 工作区 -->
  <path d="M325 220 L225 220" stroke="#333" stroke-width="2" fill="none" marker-end="url(#arrowhead)" stroke-dasharray="5,3"/>
  <text x="275" y="210" font-family="Arial" font-size="12" text-anchor="middle" fill="#333">git restore --staged</text>
  
  <!-- 箭头定义 -->
  <defs>
    <marker id="arrowhead" markerWidth="10" markerHeight="7" refX="9" refY="3.5" orient="auto">
      <polygon points="0 0, 10 3.5, 0 7" fill="#333"/>
    </marker>
  </defs>
</svg> 